<?xml version="1.0" standalone="no"?>
<!DOCTYPE svg PUBLIC "-//W3C//DTD SVG 20010904//EN"
 "http://www.w3.org/TR/2001/REC-SVG-20010904/DTD/svg10.dtd">
<svg version="1.0" xmlns="http://www.w3.org/2000/svg"
 width="980.000000pt" height="980.000000pt" viewBox="0 0 980.000000 980.000000"
 preserveAspectRatio="xMidYMid meet">
<metadata>
Created by potrace 1.15, written by Peter Selinger 2001-2017
</metadata>
<g transform="translate(0.000000,980.000000) scale(0.100000,-0.100000)"
fill="#ffffff" stroke="none">
<path d="M4545 9793 c-267 -21 -541 -66 -810 -133 -1643 -407 -2944 -1606
-3480 -3204 -235 -703 -308 -1441 -214 -2176 230 -1801 1468 -3354 3176 -3983
531 -196 1114 -297 1713 -297 989 0 1984 321 2799 903 1048 749 1739 1822
1991 3094 71 364 97 818 70 1268 -35 582 -228 1281 -506 1838 -230 459 -499
831 -888 1225 -420 427 -843 734 -1351 982 -464 227 -1026 394 -1528 455 -224
27 -783 43 -972 28z m905 -337 c195 -22 496 -84 713 -146 1404 -403 2527
-1438 3035 -2800 121 -324 217 -711 259 -1050 15 -120 18 -219 18 -570 0 -381
-3 -441 -22 -585 -143 -1041 -601 -1953 -1349 -2685 -619 -606 -1373 -1015
-2209 -1199 -323 -71 -499 -91 -885 -98 -516 -9 -820 25 -1279 143 -592 153
-1190 449 -1661 822 -551 437 -991 984 -1291 1607 -233 484 -392 1036 -441
1530 -16 172 -16 778 0 950 81 820 432 1687 956 2360 164 211 441 498 643 666
732 611 1591 971 2558 1073 103 11 816 -3 955 -18z"/>
<path d="M4610 8704 c-1114 -97 -2100 -646 -2769 -1544 -370 -495 -624 -1106
-710 -1705 -45 -311 -47 -763 -5 -1084 87 -666 414 -1403 842 -1901 121 -140
456 -470 572 -563 47 -38 155 -115 240 -172 507 -337 1057 -540 1685 -622 193
-25 690 -25 880 0 537 71 990 218 1420 461 173 98 414 261 530 359 137 114
362 334 487 473 514 575 856 1382 919 2169 22 271 4 702 -41 980 -62 388 -239
868 -460 1249 -602 1038 -1632 1720 -2840 1882 -119 15 -633 28 -750 18z m690
-330 c683 -77 1328 -355 1860 -802 115 -96 339 -323 441 -447 433 -525 697
-1154 781 -1860 17 -146 17 -597 -1 -740 -71 -590 -258 -1095 -582 -1575 -351
-520 -815 -921 -1384 -1196 -793 -383 -1677 -454 -2515 -203 -1182 355 -2105
1331 -2400 2539 -100 413 -120 952 -49 1380 211 1274 1139 2351 2374 2753 307
100 534 142 920 171 94 7 420 -4 555 -20z"/>
<path d="M4685 7565 c-47 -26 -74 -56 -85 -94 -6 -20 -10 -176 -10 -358 l0
-323 -663 0 -663 0 -36 -37 c-82 -84 -76 -180 15 -247 27 -20 43 -21 370 -26
l342 -5 3 -1577 2 -1578 -322 0 c-189 0 -338 -4 -360 -10 -45 -13 -95 -68
-103 -114 -10 -53 4 -95 47 -142 l41 -44 663 0 663 0 3 -344 c3 -330 4 -346
24 -372 38 -51 71 -69 129 -69 58 0 91 18 129 69 20 26 21 42 24 372 l3 344
314 0 315 0 1 -267 c0 -148 4 -305 8 -351 7 -72 12 -87 37 -113 61 -65 138
-76 203 -30 65 46 65 51 71 430 l5 344 84 23 c179 49 333 147 497 315 243 252
344 528 314 852 -27 277 -131 475 -384 726 l-94 94 56 37 c113 73 256 224 320
340 142 254 142 608 -1 883 -114 222 -390 408 -684 463 -48 9 -93 18 -100 19
-8 3 -12 94 -15 347 -3 388 -3 387 -81 433 -69 40 -133 29 -191 -33 -25 -27
-30 -42 -37 -114 -4 -46 -8 -203 -8 -350 l-1 -268 -315 0 -315 0 -1 328 c0
226 -4 337 -12 361 -27 76 -135 122 -202 86z m920 -1094 c169 -6 269 -14 310
-25 148 -38 290 -117 382 -214 61 -63 118 -171 133 -251 23 -125 1 -303 -50
-407 -43 -89 -169 -206 -281 -262 -172 -86 -232 -91 -1119 -94 l-705 -3 -3
633 -2 632 542 0 c299 -1 656 -5 793 -9z m311 -1617 c196 -89 373 -263 464
-456 44 -92 53 -152 48 -322 -4 -144 -6 -155 -37 -228 -87 -205 -240 -367
-440 -467 l-96 -48 -792 -7 -793 -7 0 792 0 792 786 -8 786 -7 74 -34z"/>
</g>
</svg>
