<?xml version="1.0" standalone="no"?>
<!DOCTYPE svg PUBLIC "-//W3C//DTD SVG 20010904//EN"
 "http://www.w3.org/TR/2001/REC-SVG-20010904/DTD/svg10.dtd">
<svg version="1.0" xmlns="http://www.w3.org/2000/svg"
 width="512.000000pt" height="512.000000pt" viewBox="0 0 512.000000 512.000000"
 preserveAspectRatio="xMidYMid meet">
<metadata>
Created by potrace 1.15, written by Peter Selinger 2001-2017
</metadata>
<g transform="translate(0.000000,512.000000) scale(0.100000,-0.100000)"
fill="#ffffff" stroke="none">
<path d="M2440 4719 c-49 -11 -128 -39 -185 -67 -149 -72 -254 -162 -346 -295
-37 -53 -44 -58 -67 -52 -99 25 -298 22 -406 -6 -178 -45 -333 -144 -464 -294
-59 -68 -152 -246 -177 -340 -26 -97 -31 -294 -10 -398 l17 -87 -56 -60 c-416
-450 -283 -1156 267 -1415 67 -32 185 -67 268 -80 l36 -5 6 -103 c20 -370 267
-679 632 -793 82 -26 103 -29 245 -29 171 0 226 10 360 68 111 48 184 100 283
200 61 62 92 86 100 79 7 -5 38 -30 70 -55 227 -183 584 -233 869 -121 282
110 500 383 547 683 6 35 12 64 13 65 2 1 30 10 63 20 224 67 426 244 530 460
71 150 80 196 80 391 -1 159 -3 176 -29 255 -55 167 -149 310 -272 413 -94 80
-158 117 -301 172 -1 1 12 43 29 95 30 91 32 102 32 260 1 187 -9 238 -75 378
-111 240 -310 410 -564 484 -88 25 -294 35 -388 19 -61 -11 -161 -41 -233 -71
-31 -13 -34 -12 -85 32 -123 104 -258 171 -411 202 -104 22 -270 19 -378 -5z
m349 -209 c120 -29 230 -89 315 -174 129 -127 138 -129 283 -56 243 123 486
104 709 -56 173 -123 287 -366 271 -574 -9 -106 -31 -181 -82 -283 -25 -48
-45 -99 -45 -115 0 -48 34 -90 82 -102 140 -34 171 -45 235 -81 145 -79 260
-217 317 -378 27 -77 30 -98 31 -206 0 -106 -3 -130 -29 -209 -74 -225 -254
-392 -488 -450 -51 -13 -101 -27 -110 -31 -31 -12 -45 -49 -51 -137 -21 -278
-189 -502 -449 -600 -77 -29 -93 -32 -213 -32 -149 -1 -191 8 -315 68 -73 35
-100 55 -192 148 -99 100 -110 108 -145 108 -53 0 -76 -19 -119 -98 -54 -98
-188 -226 -284 -274 -109 -54 -187 -72 -310 -72 -186 -1 -327 59 -466 198
-164 165 -213 316 -195 604 4 57 2 65 -23 91 -25 26 -34 28 -129 34 -124 8
-200 27 -292 72 -232 114 -376 341 -376 595 0 204 57 337 213 493 54 54 101
109 104 123 4 16 -4 59 -20 112 -66 218 -33 423 100 608 153 215 444 320 700
253 95 -24 137 -26 167 -6 13 8 45 52 71 98 71 123 169 216 288 273 51 24 118
49 148 55 30 6 64 13 75 15 52 10 148 4 224 -14z"/>
<path d="M1779 3359 c-131 -14 -233 -88 -280 -205 -24 -58 -24 -63 -24 -409 0
-345 0 -351 24 -410 52 -133 174 -205 344 -205 201 0 346 95 377 247 23 110
-5 163 -87 163 -58 0 -87 -28 -96 -94 -14 -101 -72 -148 -182 -148 -97 0 -154
34 -181 109 -17 49 -20 607 -3 668 30 108 172 156 289 97 39 -20 80 -88 80
-133 0 -15 9 -37 19 -50 16 -20 28 -24 75 -24 77 0 91 16 90 104 -2 195 -186
316 -445 290z"/>
<path d="M2679 3358 c-174 -21 -273 -119 -299 -295 -13 -88 -13 -548 0 -636
14 -97 44 -160 100 -210 65 -58 124 -78 247 -84 84 -5 113 -2 170 15 114 35
189 114 219 232 13 50 15 119 12 393 -3 310 -5 335 -24 383 -44 108 -142 185
-252 199 -90 11 -107 11 -173 3z m134 -169 c52 -14 101 -60 115 -107 8 -26 12
-139 12 -343 0 -274 -2 -308 -19 -345 -24 -52 -60 -80 -121 -93 -110 -24 -205
28 -229 122 -14 59 -15 597 0 650 26 96 132 147 242 116z"/>
<path d="M3577 3358 c-148 -19 -260 -120 -282 -254 -16 -101 33 -160 114 -135
49 14 56 24 70 91 20 95 74 135 173 128 93 -7 148 -60 156 -151 8 -100 -42
-164 -258 -327 -155 -118 -230 -191 -258 -252 -19 -41 -22 -65 -22 -167 0
-113 1 -121 22 -135 19 -14 70 -16 349 -16 317 0 326 1 345 21 25 27 25 91 0
118 -18 20 -29 21 -273 21 l-253 0 0 40 c0 78 38 120 251 278 156 116 209 170
253 262 27 57 31 75 31 150 0 73 -4 93 -28 142 -66 136 -218 208 -390 186z"/>
<path d="M3954 1759 c-34 -17 -56 -65 -56 -122 1 -45 5 -56 32 -79 57 -52 144
-32 171 39 30 80 -10 160 -86 168 -22 3 -49 0 -61 -6z"/>
<path d="M3838 1479 c-16 -4 -46 -21 -67 -38 -111 -88 -254 -110 -378 -57
-113 47 -180 25 -190 -64 -6 -56 17 -90 88 -125 202 -103 500 -53 643 106 29
31 36 47 36 78 0 69 -66 118 -132 100z"/>
<path d="M634 1505 c-54 -17 -95 -39 -132 -70 -28 -23 -40 -26 -124 -28 -78
-2 -103 -7 -154 -30 -77 -36 -154 -113 -191 -192 -25 -54 -28 -71 -28 -165 0
-99 2 -110 33 -172 41 -83 120 -158 197 -187 31 -12 62 -21 70 -21 8 0 26 -23
41 -52 34 -67 109 -139 181 -175 52 -25 68 -28 163 -28 97 0 110 2 170 31 165
79 248 248 216 440 -6 32 -2 50 18 90 37 74 50 136 43 215 -17 208 -187 361
-396 358 -36 -1 -84 -7 -107 -14z m181 -214 c77 -35 123 -118 106 -192 -10
-42 -13 -48 -58 -107 -38 -51 -40 -73 -13 -142 26 -66 25 -115 -3 -165 -80
-141 -277 -115 -323 43 -9 31 -22 64 -27 74 -15 24 -52 38 -96 38 -61 0 -140
47 -168 99 -13 24 -23 60 -23 79 0 52 36 119 80 148 50 33 95 39 159 20 72
-21 100 -13 160 49 71 73 133 90 206 56z"/>
</g>
</svg>
